<svg xmlns:xlink="http://www.w3.org/1999/xlink" xmlns="http://www.w3.org/2000/svg" width="162.40001220703124" height="46.22467561346367" viewBox="0 0 453.21251683603225 129" class="css-1j8o68f">
        <defs id="SvgjsDefs9761"></defs>
        <g id="SvgjsG9762" featurekey="nameContainer" transform="matrix(1,0,0,1,0,0)" fill="#3C2A21">
            <rect y="0" height="1" width="1" opacity="0" fill="#3C2A21"></rect>
            <rect y="124" width="453" height="5" fill="#3C2A21"></rect>
        </g>
        <g id="SvgjsG9763" featurekey="nameLeftFeature-0" transform="matrix(2.4999999006589295,0,0,2.4999999006589295,-3.449999552965182,33.00000198682142)" fill="#3C2A21">
            <path d="M5.08 20 l-2.98 0 q-0.38 0 -0.55 -0.17 t-0.17 -0.55 l0 -12.96 q0 -0.38 0.17 -0.55 t0.55 -0.17 l3.22 0 q0.32 0 0.53 0.14 t0.39 0.46 l1.8 3.26 q0.1 0.18 0.17 0.26 t0.19 0.08 l0.18 0 q0.12 0 0.19 -0.08 t0.17 -0.26 l1.78 -3.26 q0.18 -0.32 0.39 -0.46 t0.53 -0.14 l3.24 0 q0.38 0 0.55 0.17 t0.17 0.55 l0 12.96 q0 0.38 -0.17 0.55 t-0.55 0.17 l-3.08 0 q-0.38 0 -0.55 -0.17 t-0.17 -0.55 l0 -7.04 l-1.18 2.18 q-0.18 0.34 -0.43 0.49 t-0.63 0.15 l-0.8 0 q-0.38 0 -0.63 -0.15 t-0.43 -0.49 l-1.18 -2.18 l0 7.04 q0 0.38 -0.17 0.55 t-0.55 0.17 z M25.278 9.8 l-0.94 3.04 l3.14 0 l-0.94 -3.04 q-0.08 -0.18 -0.17 -0.26 t-0.21 -0.08 l-0.5 0 q-0.12 0 -0.21 0.08 t-0.17 0.26 z M24.138 19.28 q0 0.38 -0.17 0.55 t-0.55 0.17 l-2.94 0 q-0.38 0 -0.55 -0.17 t-0.17 -0.55 l0 -5.28 q0 -0.6 0.19 -1.38 t0.59 -1.82 l1.74 -4.54 q0.12 -0.34 0.37 -0.5 t0.65 -0.16 l5.38 0 q0.38 0 0.63 0.16 t0.37 0.5 l1.74 4.54 q0.4 1.04 0.59 1.82 t0.19 1.38 l0 5.28 q0 0.38 -0.17 0.55 t-0.55 0.17 l-3.02 0 q-0.4 0 -0.59 -0.17 t-0.19 -0.55 l0 -2.8 l-3.54 0 l0 2.8 z M40.076 20 l-3 0 q-0.38 0 -0.55 -0.17 t-0.17 -0.55 l0 -12.96 q0 -0.38 0.17 -0.55 t0.55 -0.17 l2.08 0 q0.38 0 0.65 0.12 t0.53 0.42 l3.88 4.44 l0 -4.26 q0 -0.38 0.17 -0.55 t0.55 -0.17 l3 0 q0.38 0 0.55 0.17 t0.17 0.55 l0 12.96 q0 0.38 -0.17 0.55 t-0.55 0.17 l-3 0 q-0.38 0 -0.55 -0.17 t-0.17 -0.55 l0 -2.46 l-3.42 -4.14 l0 6.6 q0 0.38 -0.17 0.55 t-0.55 0.17 z M64.11399999999999 20 l-6.3 0 q-2.5 0 -3.71 -1 t-1.21 -3.08 l0 -6.24 q0 -2.08 1.21 -3.08 t3.71 -1 l5 0 q0.38 0 0.55 0.17 t0.17 0.55 l0 2.42 q0 0.38 -0.17 0.55 t-0.55 0.17 l-4.16 0 q-0.62 0 -0.92 0.25 t-0.3 0.75 l0 4.78 q0 0.5 0.23 0.74 t0.69 0.24 l1.94 0 l0 -3.12 q0 -0.38 0.17 -0.55 t0.55 -0.17 l3.1 0 q0.38 0 0.55 0.17 t0.17 0.55 l0 6.18 q0 0.38 -0.17 0.55 t-0.55 0.17 z M74.192 9.8 l-0.94 3.04 l3.14 0 l-0.94 -3.04 q-0.08 -0.18 -0.17 -0.26 t-0.21 -0.08 l-0.5 0 q-0.12 0 -0.21 0.08 t-0.17 0.26 z M73.05199999999999 19.28 q0 0.38 -0.17 0.55 t-0.55 0.17 l-2.94 0 q-0.38 0 -0.55 -0.17 t-0.17 -0.55 l0 -5.28 q0 -0.6 0.19 -1.38 t0.59 -1.82 l1.74 -4.54 q0.12 -0.34 0.37 -0.5 t0.65 -0.16 l5.38 0 q0.38 0 0.63 0.16 t0.37 0.5 l1.74 4.54 q0.4 1.04 0.59 1.82 t0.19 1.38 l0 5.28 q0 0.38 -0.17 0.55 t-0.55 0.17 l-3.02 0 q-0.4 0 -0.59 -0.17 t-0.19 -0.55 l0 -2.8 l-3.54 0 l0 2.8 z" fill="#3C2A21">
            </path>
        </g>
        <g id="SvgjsG9764" featurekey="inlineSymbolFeature-0" transform="matrix(1.3365244812845714,0,0,1.3365244812845714,219,18)" fill="#3C2A21">
            <title xmlns="http://www.w3.org/2000/svg">Imported Layers</title>
            <desc xmlns="http://www.w3.org/2000/svg" fill="#3C2A21">Created with Sketch.</desc>
            <g xmlns="http://www.w3.org/2000/svg" stroke="none" stroke-width="1" fill="none" fill-rule="evenodd" xmlns:sketch="http://www.bohemiancoding.com/sketch/ns" sketch:type="MSPage">
                <path d="M84.1603211,61.1205944 C84.2007148,61.5379959 84.2328802,61.9621298 83.9792975,62.2800432 C83.1415022,62.6779959 82.1241794,62.5508306 81.1816597,62.1820511 C81.1704392,62.1655944 81.1607148,62.1498857 81.1487463,62.132681 C81.1158329,62.1296889 81.0679589,62.1214605 81.0148487,62.1139802 C80.3438644,61.8289802 79.7252424,61.4325235 79.2494944,61.0308306 C78.9727227,60.4054763 78.4790219,60.0366967 77.8955573,59.7038227 C77.6681558,59.5736652 77.4489825,59.4270511 77.2283133,59.2744526 C77.0951636,59.1263424 76.9665022,58.9872085 76.842329,58.8577991 C76.6934707,58.7037046 76.5229196,58.6476022 76.3605967,58.6603188 C76.3269353,58.6371298 76.295518,58.6139408 76.2611085,58.5900038 C75.9948093,58.6146889 75.8833526,58.808429 75.8107936,59.0343345 C75.7591794,59.1285865 75.7292581,59.2333109 75.7285101,59.3410274 C75.7247699,59.3559881 75.7210298,59.3709487 75.7172896,59.3851613 C75.3335495,60.8094133 74.6124471,62.0683503 73.8516991,63.3115786 C73.4357936,63.9907912 72.9069353,64.5338621 72.1791007,64.8869329 C71.5851636,65.1756731 71.3233526,65.1614605 70.8206755,64.723114 C70.5199668,64.461303 70.2140219,64.2032322 69.8953605,63.963114 C69.3515416,63.5546889 69.2146518,62.9899251 69.2109117,62.3526022 C69.195951,59.9903188 68.7583526,57.7103188 67.7559904,55.5664605 C67.436581,54.8835078 67.1119353,54.1788621 66.4761085,53.701618 C66.0983526,53.1959487 65.775203,52.6513818 65.393707,52.1472085 C65.2388644,51.8554763 65.0301636,51.6146101 64.7825652,51.4171298 C64.5820928,51.1081928 64.4175259,50.853114 64.2679196,50.5965392 C64.1175652,50.3392164 63.9716991,50.068429 63.8894156,49.7849251 C63.8407936,49.6188621 63.8677227,49.2897282 63.9529983,49.2545707 C64.135518,49.1782715 64.4085495,49.1805156 64.588077,49.2672873 C64.8551243,49.3959487 65.1034707,49.5971692 65.3061873,49.8170904 C67.4463054,52.1419723 69.3672503,54.6246889 70.6591007,57.5337833 C71.0286282,58.3655944 71.2934314,59.2437833 71.6053605,60.1010274 C71.6943762,60.3463818 71.7818959,60.5924841 71.9157936,60.9657518 C72.117014,60.7248857 72.2845731,60.6059487 72.3391794,60.448114 C72.8007148,59.1076416 73.2629983,57.7664211 73.6803999,56.4117361 C73.8861085,55.743744 73.8793762,55.7048463 74.5436282,55.8245314 C74.6431164,55.8424841 74.753077,55.9225235 74.8338644,55.8970904 C76.2065022,55.4662243 77.2313054,56.2516574 78.2718172,56.9054369 C79.097644,57.4238227 79.8681164,58.0312243 80.7044156,58.6296495 C81.1098487,58.2331928 81.0672109,57.8756337 80.8929196,57.5240589 C80.2481164,56.2224841 79.6122896,54.9164211 78.931581,53.6342952 C78.598707,53.0089408 78.1745731,52.4329566 77.7900849,51.8345314 C77.2672109,51.019177 76.580518,50.4140196 75.6985888,49.9771692 C75.1465416,49.7033896 74.6924865,49.7153581 74.1643762,49.9539802 C73.3953999,50.3018148 72.6047306,50.6032715 71.8297699,50.9383896 C71.3981558,51.1239015 70.9620534,51.2159093 70.597014,50.8628385 C70.1945731,50.4738621 69.9566991,49.973429 70.0621715,49.4011849 C70.096581,49.2104369 70.2858329,48.9822873 70.4646125,48.8955156 C71.2178802,48.5297282 72.0265022,48.2694133 72.7550849,47.8639802 C75.2490219,46.4748857 77.8708723,45.3917361 80.5839825,44.5285078 C82.0329196,44.0677203 83.4998093,43.654807 84.9741794,43.2815392 C86.0550849,43.0085078 86.7642188,43.536618 86.9213054,44.6227597 C87.0118172,45.2518542 86.9183133,45.3805156 86.2892188,45.5376022 C85.3721321,45.7650038 84.4348487,45.936303 83.5454392,46.24524 C81.7292188,46.8765786 79.9369353,47.5797282 78.1394156,48.263429 C77.862644,48.3689015 77.6083133,48.5297282 77.2133526,48.7309487 C77.5529589,49.1633109 77.815518,49.5373266 78.1177227,49.8761849 C79.6526833,51.5966574 81.0679589,53.4053975 82.23414,55.3989015 C83.2709117,57.1717361 83.9635888,59.0664999 84.1603211,61.1205944 L84.1603211,61.1205944 Z M53.1925652,57.0565392 C52.4093762,57.6265392 51.5439038,58.073114 51.0636676,59.0066574 C50.7248093,59.6671692 50.6425259,60.0995314 51.050203,60.5498463 C51.4892975,61.0345707 51.7249274,61.0353188 52.4647306,60.6171692 C54.0251243,59.7359881 55.562329,58.807681 57.1638644,58.0080353 C59.4027227,56.8912243 61.6789825,55.8499644 63.9500062,54.7989802 C64.2589432,54.3972873 64.4466991,53.9379959 64.396581,53.4308306 C64.3703999,53.1645314 64.302329,52.9490983 64.2050849,52.7703188 C64.0337857,52.5750826 63.850518,52.3933109 63.6463054,52.2362243 C63.328392,52.0768936 62.9364235,52.0200432 62.5242581,52.0103188 C61.4164235,52.5025235 60.3018566,52.9812637 59.2059904,53.4996495 C57.0928014,54.4975235 55.0850849,55.6794133 53.1925652,57.0565392 L53.1925652,57.0565392 Z M94.4973684,50.6174841 C94.3582345,49.6674841 93.8405967,49.2882322 92.9092975,49.450555 C92.7469747,49.4789802 92.5450062,49.5507912 92.4208329,49.4864605 C91.9346125,49.2351219 91.4738251,49.4251219 91.043707,49.569492 C88.5497699,50.4087833 86.0640613,51.2757518 83.5813447,52.1494526 C82.9993762,52.3544133 82.7884314,52.7777991 82.9170928,53.3261062 C83.0502424,53.8968542 83.5252424,54.3322085 84.2089432,54.3471692 C84.6248487,54.2469329 85.2232739,54.1422085 85.796266,53.9574448 C87.9139432,53.2767361 90.0189038,52.5548857 92.1395731,51.8824054 C92.7155573,51.7006337 93.3304392,51.6445314 93.9258723,51.5226022 C94.4248093,51.4201219 94.5654392,51.0850038 94.4973684,50.6174841 L94.4973684,50.6174841 Z M22.0729589,23.6546889 C22.6698881,23.8686259 23.3027227,24.11024 23.7799668,24.5066967 C25.3650455,25.8239802 26.9022503,27.2003581 28.4252424,28.5894526 C28.9196912,29.0405156 29.2877227,29.6292164 29.7649668,30.1034684 C30.0896125,30.42587 30.4741007,30.7265786 30.8892581,30.9038621 C31.0934707,30.9913818 31.5639825,30.8657125 31.6784314,30.6869329 C32.1609117,29.929177 32.905951,29.5364605 33.6360298,29.1183109 C36.2818172,27.6042952 39.0173684,26.2810274 41.9025259,25.2786652 C44.137644,24.5022085 46.3555573,23.6726416 48.6078802,22.9515392 C51.3075259,22.0868148 54.0236282,21.2714605 56.7382345,20.4538621 C56.8504392,20.3655944 56.9678802,20.2803188 57.0711085,20.1875629 C57.1631164,19.7828778 57.2753211,19.3819329 57.3935101,18.9817361 C57.3748093,18.859807 57.3553605,18.7378778 57.3336676,18.6152007 C57.0957936,18.3361849 56.8429589,18.0691377 56.5774077,17.8103188 C56.3567384,17.888114 56.1293369,17.9674054 55.8832345,18.0504369 C55.7209117,17.7325235 55.6042188,17.4953975 55.4792975,17.2635078 C55.0940613,16.5453975 54.7492188,16.4571298 53.9892188,16.8057125 C50.8272896,18.2546495 47.6481558,19.669177 44.4966991,21.140555 C40.7610298,22.8842164 37.0440613,24.6660274 33.3278408,26.4493345 C32.6583526,26.7709881 32.0217778,27.1637046 31.3896912,27.5564211 C30.909455,27.8548857 30.506266,27.8025235 30.1135495,27.4195314 C29.9444944,27.2549644 29.7589825,27.1061062 29.579455,26.9520117 C27.9120928,25.5217755 26.2424865,24.0930353 24.5773684,22.659807 C24.2789038,22.4024841 23.997644,22.1234684 23.6737463,21.8227597 C24.4928408,20.8428385 25.448077,20.1830747 26.4743762,19.6893739 C28.6331951,18.6511062 30.815203,17.65024 33.0346125,16.7496101 C37.3305573,15.0066967 41.762644,13.6609881 46.2007148,12.328744 C47.3130377,11.9951219 48.1493369,12.2748857 49.0439825,12.8329172 C50.3231164,13.6318148 51.3688644,14.6783109 52.3764629,15.7779172 C52.6031164,16.0255156 52.8297699,16.3022873 53.115518,16.4556337 C53.3189825,16.5640983 53.687014,16.5850432 53.8605573,16.4668542 C54.0341007,16.3494133 54.1313447,16.0075629 54.1253605,15.7674448 C54.1186282,15.4383109 54.0251243,15.0934684 53.8942188,14.7875235 C53.5134707,13.9026022 53.2090219,13.0371298 52.2919353,12.4185078 C51.2566597,11.7205944 50.2213841,10.9127203 49.7546125,9.61114555 C49.4987857,8.8975235 49.2182739,8.80551562 48.4934314,9.04638177 C48.1680377,9.1540983 47.9294156,9.12417704 47.7139825,8.97232665 C47.0070928,9.08677547 46.3016991,9.20720854 45.5933133,9.30819279 C45.4698881,9.38898019 45.3367384,9.45630303 45.1893762,9.51240539 C42.9138644,10.3696495 40.6548093,11.2732715 38.3568566,12.0646889 C34.234455,13.4852007 30.1464629,14.9909881 26.2275259,16.9089408 C24.2564629,17.8739015 22.3242975,18.9271298 20.5858723,20.2930353 C19.961266,20.784492 19.913392,20.9213818 20.1205967,21.6544526 C20.4100849,22.6814999 21.0788251,23.2986259 22.0729589,23.6546889 L22.0729589,23.6546889 Z M66.0489825,63.2906337 C66.2546912,63.8524054 66.0474865,64.0902794 65.4064235,64.319177 C62.9910298,65.1831534 60.5546912,65.9977597 58.175203,66.953744 C56.8010692,67.5057912 55.5039825,68.260555 54.2061479,68.9861455 C53.1559117,69.5740983 53.1791007,69.61524 52.1311085,69.4409487 C52.1011873,69.4895707 52.0637857,69.5396889 52.0323684,69.5927991 C50.787644,69.5449251 49.6304392,69.9092164 48.4732345,70.2996889 C46.726581,70.3572873 45.6150062,69.1903581 44.3934707,68.2508306 C42.3595731,66.6844526 40.3690613,65.0604763 38.3583526,63.464177 C38.2536282,63.3811455 38.1354392,63.272681 38.0150062,63.2592164 C36.3611085,63.083429 35.2151243,61.9598857 34.0040613,61.0270904 C31.7816597,59.3148463 29.6467778,57.4881534 27.4700062,55.7160668 C24.9528802,53.6664605 22.4050849,51.6527597 19.9148881,49.5717361 C17.3738251,47.4488227 14.8851243,45.2615786 12.3724865,43.1035078 C12.1420928,42.9052794 11.9176833,42.6905944 11.6588644,42.5372479 C11.505518,42.4467361 11.2474471,42.374177 11.1098093,42.4422479 C10.2159117,42.8850826 9.66610853,42.3352794 9.23673845,41.733114 C8.85150223,41.1930353 8.62559672,40.5377597 8.34658097,39.92587 C8.25008491,39.713429 8.26728963,39.4209487 8.12441561,39.263114 C7.28886443,38.3415392 6.52886443,37.2516574 5.34547861,36.8103188 C2.87323451,35.8872479 1.41606916,34.084492 0.671777819,31.6833109 C-0.31786785,28.4899644 -0.190702496,25.2824054 0.899179394,22.1167361 C1.50882506,20.3446495 2.80665971,19.1066574 4.18976995,17.9569329 C5.04177782,17.2485471 5.77484869,17.3974054 6.70539987,17.9838621 C7.10260459,18.2352007 7.13177782,18.5680747 6.86248648,18.931618 C6.74205341,19.0931928 6.62012428,19.2682322 6.46004554,19.383429 C4.95126601,20.4718148 4.16882506,22.0262243 3.73945498,23.7624054 C3.2981164,25.5479566 3.16122664,27.364177 3.53898254,29.1938621 C3.69382506,29.9441377 3.98256522,30.6061455 4.53835262,31.1469723 C5.74417939,32.3213818 6.94252585,33.5047676 8.33760459,34.8751613 C9.27862821,31.1043345 10.2563054,27.6596495 12.7352818,24.7677597 C12.4166203,24.4214211 12.1166597,24.0735865 11.7950062,23.7474448 C10.7507542,22.6874841 9.67508491,21.6574448 8.66000617,20.571303 C8.20445498,20.0835865 7.8319353,19.5076022 7.47736837,18.9376022 C7.13327388,18.384807 7.20583294,18.1843345 7.78181719,17.6622085 C7.32776207,16.8715392 7.65315577,16.3456731 8.30244711,15.7689408 C10.5734707,13.7514999 13.1885888,12.2703975 15.8134314,10.8005156 C16.3998881,10.4721298 17.0514235,10.2611849 17.6663054,9.98142114 C17.9722503,9.84228728 18.3036282,9.71512192 18.5534707,9.50043688 C19.1085101,9.02468885 19.7652818,8.79953137 20.4317778,8.5437046 C23.5824865,7.33413767 26.7077621,6.05724791 29.864455,4.8648857 C31.5385495,4.23279909 33.2575259,3.71890145 34.9600455,3.16161799 C36.0776046,2.79508255 37.2018959,2.44575184 38.3224471,2.08894082 C38.5483526,2.0171298 38.7690219,1.92362586 38.9994156,1.87350775 C41.1073684,1.41571247 43.2108329,0.933980191 45.3277621,0.525554995 C46.5545337,0.289177042 47.8015022,0.146303026 49.0447306,0.0139014512 C50.1660298,-0.105783588 50.9955967,0.556224286 50.9035888,1.65732665 C50.8325259,2.49811405 51.2297306,2.93272035 51.7832739,3.31496444 C52.7153211,3.95827153 53.5942581,4.64646051 54.7350062,5.01149988 C55.5541007,5.2733109 56.3342975,5.94653925 56.9057936,6.62649988 C57.7084314,7.58098807 58.6935888,8.26468885 59.6660298,8.98728728 C61.9467778,10.6800826 64.231266,12.3676416 66.5179983,14.0537046 C69.2101636,16.0382322 71.9202818,17.9980747 74.5952424,20.0065392 C77.2432739,21.994807 79.8658723,24.0174841 82.4817384,26.0483896 C85.0175652,28.0164605 87.530951,30.0129566 90.0518172,31.9997282 C90.7803999,32.5734684 91.2082739,33.2489408 90.6764235,34.2071692 C90.8933526,34.4607518 91.0534314,34.7352794 91.2898093,34.9050826 C91.8642975,35.3179959 91.7917384,35.9747676 91.9615416,36.5365392 C92.0019353,36.6704369 91.9263841,36.886618 91.8306361,37.0070511 C90.9457148,38.1193739 90.6913841,39.4920117 90.3031558,40.7950826 C89.9785101,41.8842164 90.1857148,43.0159881 90.4325652,44.106618 C90.5911479,44.8097676 90.9868566,45.4037046 91.5149668,45.9086259 C91.8321321,46.2115786 92.1590219,46.5197676 92.4028802,46.8795707 C92.7948487,47.4585471 92.5562266,47.9148463 91.8732739,48.0382715 C91.0519353,48.1871298 90.4355573,47.9140983 89.9403605,47.242366 C88.004455,44.6175235 87.4419353,41.7503188 88.3478014,38.6033503 C88.5400455,37.9361062 88.6889038,37.2568936 88.8781558,36.5006337 C88.2453211,36.5140983 87.8361479,36.6816574 87.4913054,36.9995707 C85.9398881,37.3661062 84.443077,37.8440983 83.0988644,38.7260274 C83.0913841,38.7305156 83.0868959,38.7357518 83.0794156,38.7409881 C80.6759904,39.8121692 78.2867778,40.9155156 75.8960692,42.016618 C73.4088644,43.1618542 70.8992188,44.2629566 68.4479196,45.4829959 C65.0907542,47.1526022 61.7687463,48.8955156 58.4527227,50.6489015 C57.1107542,51.3580353 55.7949668,52.1210274 54.4993762,52.9146889 C52.8290219,53.5205944 51.2132739,54.2536652 49.7216991,55.2956731 C49.7179589,55.293429 49.7164629,55.292681 49.7127227,55.2904369 C49.601266,55.2238621 49.4883133,55.1602794 49.2571715,55.0263818 C48.5226046,56.4289408 47.7678408,57.7783896 47.1013447,59.1704763 C46.441581,60.5490983 45.9994944,62.0055156 45.9029983,63.5472085 C45.7653605,65.7389408 47.1888644,67.3187833 49.388077,67.4182715 C49.6558723,67.43024 49.9311479,67.4272479 50.1884707,67.4908306 C50.8878802,67.6621298 51.4361873,67.6411849 51.9246518,66.9372873 C52.2268566,66.5019329 52.8409904,66.2775235 53.3279589,65.9790589 C56.5572109,64.0012637 59.7610298,61.9770904 63.2004786,60.3740589 C63.6679983,60.1563818 64.2342581,60.0980353 64.7601243,60.0726022 C65.2111873,60.0509093 65.7385495,60.7009487 65.7063841,61.3397676 C65.6712266,62.0361849 65.8148487,62.6518148 66.0489825,63.2906337 L66.0489825,63.2906337 Z M19.3561085,28.2199251 C22.5778802,31.0063424 25.7278408,33.8757912 28.9660692,36.6427597 C32.0232739,39.2548857 35.1403211,41.7974448 38.2551243,44.3407518 C41.0572503,46.6289802 43.8930377,48.8775629 46.7123684,51.1448463 C47.0774077,51.4380747 47.4357148,51.7410274 47.843392,52.0768936 C48.2121715,51.8479959 48.5517778,51.636303 48.8928802,51.4261062 C51.310518,49.9375235 53.7139432,48.4250038 56.1517778,46.9708306 C57.6867384,46.05524 59.2598487,45.20024 60.8419353,44.3669329 C62.9641007,43.2493739 65.0817778,42.1153581 67.2548093,41.1025235 C70.9672896,39.3723266 74.8907148,38.1919329 78.766266,36.8970904 C80.880951,36.1909487 83.0479983,35.6426416 85.1888644,35.0135471 C85.6249668,34.8856337 86.0476046,34.7128385 86.4769747,34.5609881 C86.5046518,34.4697282 86.533077,34.3799644 86.5615022,34.2894526 C86.4118959,34.2094133 86.2458329,34.1510668 86.1156755,34.0470904 C83.6598881,32.0842558 81.1726833,30.1573266 78.7640219,28.1383896 C75.5497306,25.4447282 72.3885495,22.6882322 69.2206361,19.9392164 C67.4328408,18.3885471 65.70414,16.7675629 63.898392,15.2378385 C62.403077,13.9699251 60.8464235,12.7730747 59.2935101,11.5747282 C57.0733526,9.8617361 54.8629196,8.13303531 52.5859117,6.49858649 C51.4967778,5.71614555 50.2685101,5.12669673 49.0941007,4.46468885 C49.0013447,4.41232665 48.8958723,4.37417704 48.7889038,4.33827153 C48.0715416,4.23878334 47.3586676,4.10264161 46.6413054,4.00539751 C46.5799668,4.02484633 46.5171321,4.04354712 46.4513054,4.06149988 C41.7992975,5.37429515 37.1353211,6.64819279 32.5079983,8.04177547 C27.9240613,9.42189358 23.6011873,11.4453188 19.4256755,13.7664605 C17.3596125,14.9146889 15.3653605,16.1953188 13.3741007,17.4707125 C12.4764629,18.0452007 11.6117384,18.693744 10.8801636,19.5779172 C11.2945731,20.1112637 11.6281951,20.6244133 12.0433526,21.0605156 C14.3966597,23.5320117 16.7694156,25.9833109 19.3561085,28.2199251 L19.3561085,28.2199251 Z M17.1785888,42.7811062 C17.4897699,38.7566967 17.9206361,34.9686652 20.0914235,31.5509093 C18.4233133,30.0391377 16.8629196,28.6253581 15.3092581,27.2168148 C15.1177621,27.3761455 15.0302424,27.4307518 14.9674077,27.505555 C14.8357542,27.6596495 14.7011085,27.814492 14.5963841,27.9865392 C13.26414,30.166303 12.2153999,32.4642558 11.8735495,35.0195314 C11.7628408,35.8461062 11.7942581,36.6996101 11.8421321,37.5359093 C11.8593369,37.8343739 12.052329,38.1844526 12.2737463,38.3991377 C13.5596125,39.6438621 14.8731558,40.8609093 16.1889432,42.0734684 C16.4432739,42.3076022 16.753707,42.4803975 17.1785888,42.7811062 L17.1785888,42.7811062 Z M45.7878014,53.6447676 C38.4174471,46.9416574 30.5676046,40.8990589 23.0828014,34.1480747 C22.7102818,34.5684684 22.3848881,34.8602007 22.1507542,35.2125235 C20.3853999,37.8680353 19.5902424,40.8489408 19.2611085,43.9802007 C19.2042581,44.5142952 19.367329,44.9548857 19.8139038,45.3146889 C20.6292581,45.9707125 21.4154392,46.6641377 22.2016203,47.3553188 C24.3596912,49.2515786 26.4698881,51.2046889 28.6758329,53.0433503 C32.049455,55.8552007 35.492644,58.5847676 38.8961873,61.3614605 C39.9928014,62.2561062 41.0572503,63.1896495 42.1403999,64.1000038 C42.166581,64.1216967 42.2496125,64.0760668 42.3057148,64.0618542 C42.3169353,63.9967755 42.3423684,63.9309487 42.3371321,63.867366 C42.1052424,61.3143345 42.6647699,58.9782322 44.1690613,56.8717755 C44.5468172,56.3429172 45.0696912,55.8432322 44.9028802,55.0525629 C44.8662266,54.8775235 45.0764235,54.6374054 45.2005967,54.4451613 C45.3606755,54.1975629 45.5484314,53.9679172 45.7878014,53.6447676 L45.7878014,53.6447676 Z" fill="#3C2A21" sketch:type="MSShapeGroup"></path>
            </g>
        </g>
        <g id="SvgjsG9765" featurekey="nameRightFeature-0" transform="matrix(2.503477031536842,0,0,2.503477031536842,352.4475651229235,32.88038868263158)" fill="#3C2A21">
            <path d="M6.894 18.12 l2.76 0 l0 1.88 l-4.64 0 l0 -14.36 l1.88 0 l0 12.48 z M14.367999999999999 20.02 c-1.5 0 -2.7 -1.22 -2.7 -2.7 l0 -8.98 c0 -1.48 1.2 -2.68 2.7 -2.68 c1.48 0 2.68 1.2 2.68 2.68 l0 8.98 c0 1.48 -1.2 2.7 -2.68 2.7 z M14.367999999999999 7.5600000000000005 c-0.44 0 -0.78 0.36 -0.78 0.78 l0 8.98 c0 0.44 0.34 0.78 0.78 0.78 c0.42 0 0.78 -0.34 0.78 -0.78 l0 -8.98 c0 -0.42 -0.36 -0.78 -0.78 -0.78 z M23.721999999999998 11.52 c0.44 0.44 0.72 1.04 0.72 1.7 l0 4.38 c0 1.32 -1.08 2.4 -2.4 2.4 l-2.96 0 l-0.02 -14.24 l2.64 0 c1.46 0.06 2.32 1.46 2.3 2.78 l-0.02 1.98 c0 0.36 -0.1 0.7 -0.26 1 z M22.041999999999998 18.08 c0.28 0 0.5 -0.22 0.5 -0.48 l-0.02 -4.38 c0 -0.28 -0.22 -0.48 -0.48 -0.48 l-1.06 0 l0 5.34 l1.06 0 z M20.961999999999996 7.66 l0 3.16 l0.8 0 c0.16 0 0.32 -0.14 0.32 -0.32 l0.02 -1.98 c0 -0.4 -0.2 -0.84 -0.48 -0.86 l-0.66 0 z M31.115999999999996 11.52 c0.44 0.44 0.72 1.04 0.72 1.7 l0 4.38 c0 1.32 -1.08 2.4 -2.4 2.4 l-2.96 0 l-0.02 -14.24 l2.64 0 c1.46 0.06 2.32 1.46 2.3 2.78 l-0.02 1.98 c0 0.36 -0.1 0.7 -0.26 1 z M29.435999999999996 18.08 c0.28 0 0.5 -0.22 0.5 -0.48 l-0.02 -4.38 c0 -0.28 -0.22 -0.48 -0.48 -0.48 l-1.06 0 l0 5.34 l1.06 0 z M28.355999999999995 7.66 l0 3.16 l0.8 0 c0.16 0 0.32 -0.14 0.32 -0.32 l0.02 -1.98 c0 -0.4 -0.2 -0.84 -0.48 -0.86 l-0.66 0 z M40.24999999999999 5.720000000000001 l-2.68 8.68 l0 5.6 l-1.94 0 l0 -5.62 l-2.46 -8.66 l2 0 l1.46 5.14 l1.6 -5.14 l2.02 0 z" fill="#3C2A21">
            </path>
        </g>
    </svg>