<svg width="44" height="44" viewBox="0 0 44 44" fill="none" xmlns="http://www.w3.org/2000/svg">
<path d="M21.9941 10.7119C15.7475 10.7119 10.7062 15.7533 10.7062 22C10.7062 28.2467 15.7475 33.2881 21.9941 33.2881C28.2407 33.2881 33.282 28.2467 33.282 22C33.282 15.7533 28.2407 10.7119 21.9941 10.7119ZM21.9941 29.3365C17.9544 29.3365 14.6578 26.0397 14.6578 22C14.6578 17.9603 17.9544 14.6635 21.9941 14.6635C26.0337 14.6635 29.3304 17.9603 29.3304 22C29.3304 26.0397 26.0337 29.3365 21.9941 29.3365ZM33.7443 7.61878C32.2859 7.61878 31.1081 8.79658 31.1081 10.2551C31.1081 11.7136 32.2859 12.8913 33.7443 12.8913C35.2028 12.8913 36.3805 11.7191 36.3805 10.2551C36.381 9.90874 36.3131 9.56573 36.1808 9.24569C36.0484 8.92564 35.8543 8.63485 35.6094 8.38996C35.3645 8.14507 35.0737 7.9509 34.7537 7.81857C34.4336 7.68624 34.0906 7.61835 33.7443 7.61878V7.61878ZM43.9975 22C43.9975 18.9619 44.0251 15.9514 43.8545 12.9189C43.6838 9.39648 42.8803 6.27037 40.3046 3.69463C37.7234 1.11339 34.6029 0.315349 31.0806 0.144734C28.0426 -0.0258816 25.0321 0.00163705 21.9996 0.00163705C18.9616 0.00163705 15.9511 -0.0258816 12.9186 0.144734C9.39631 0.315349 6.27026 1.11889 3.69456 3.69463C1.11337 6.27588 0.315343 9.39648 0.144731 12.9189C-0.0258811 15.9569 0.00163702 18.9675 0.00163702 22C0.00163702 25.0325 -0.0258811 28.0486 0.144731 31.0811C0.315343 34.6035 1.11887 37.7296 3.69456 40.3054C6.27576 42.8866 9.39631 43.6846 12.9186 43.8553C15.9566 44.0259 18.9671 43.9984 21.9996 43.9984C25.0376 43.9984 28.0481 44.0259 31.0806 43.8553C34.6029 43.6846 37.7289 42.8811 40.3046 40.3054C42.8858 37.7241 43.6838 34.6035 43.8545 31.0811C44.0306 28.0486 43.9975 25.0381 43.9975 22V22ZM39.1544 34.9778C38.7526 35.9794 38.2683 36.7279 37.4923 37.4985C36.7163 38.2745 35.9733 38.7588 34.9716 39.1606C32.0767 40.3109 25.2027 40.0522 21.9941 40.0522C18.7855 40.0522 11.906 40.3109 9.01106 39.1661C8.0094 38.7643 7.26091 38.28 6.4904 37.504C5.71439 36.728 5.23007 35.9849 4.82831 34.9833C3.68356 32.0828 3.94223 25.2087 3.94223 22C3.94223 18.7913 3.68356 11.9117 4.82831 9.01673C5.23007 8.01505 5.71439 7.26655 6.4904 6.49603C7.26641 5.7255 8.0094 5.23567 9.01106 4.8339C11.906 3.68913 18.7855 3.9478 21.9941 3.9478C25.2027 3.9478 32.0822 3.68913 34.9771 4.8339C35.9788 5.23567 36.7273 5.72 37.4978 6.49603C38.2738 7.27205 38.7581 8.01505 39.1599 9.01673C40.3046 11.9117 40.0459 18.7913 40.0459 22C40.0459 25.2087 40.3046 32.0828 39.1544 34.9778Z" fill="#E61F5A"/>
</svg>
